<svg version="1.1" xmlns="http://www.w3.org/2000/svg" xmlns:xlink="http://www.w3.org/1999/xlink" width="133.35618" height="133.87821" viewBox="0,0,133.35618,133.87821"><g transform="translate(-173.14381,-112.62182)"><g data-paper-data="{&quot;isPaintingLayer&quot;:true}" fill-rule="nonzero" stroke-linecap="butt" stroke-linejoin="miter" stroke-miterlimit="10" stroke-dasharray="" stroke-dashoffset="0" style="mix-blend-mode: normal"><path d="M174.5,197.50003c0,-27.30484 0,-46.02771 0,-61c0,-12.51198 7.23802,-22 19.75,-22c13.28313,0 51.12392,0 79,0c17.54984,0 32.25,7.95016 32.25,25.5c0,12.94067 0,44.30976 0,69.5c0,20.30546 -10.94454,36 -31.25,36c-15.12466,0 -48.44923,0.27631 -75.5,0c-29.46331,-0.30095 -24.25,-20.69516 -24.25,-48z" fill="#000000" stroke="#000000" stroke-width="2"/><text transform="translate(191.05993,205.66789) scale(2.13899,2.13899)" font-size="40" xml:space="preserve" fill="#07ff00" fill-rule="nonzero" stroke="none" stroke-width="1" stroke-linecap="butt" stroke-linejoin="miter" stroke-miterlimit="10" stroke-dasharray="" stroke-dashoffset="0" font-family="Sans Serif" font-weight="normal" text-anchor="start" style="mix-blend-mode: normal"><tspan x="0" dy="0">13</tspan></text><text transform="translate(216.15939,236.44871) scale(0.5,0.5)" font-size="40" xml:space="preserve" fill="#06b200" fill-rule="nonzero" stroke="none" stroke-width="1" stroke-linecap="butt" stroke-linejoin="miter" stroke-miterlimit="10" stroke-dasharray="" stroke-dashoffset="0" font-family="Sans Serif" font-weight="normal" text-anchor="start" style="mix-blend-mode: normal"><tspan x="0" dy="0">Ta Ka</tspan></text></g></g></svg>